<svg width="250" height="166" viewBox="0 0 250 166" fill="none" xmlns="http://www.w3.org/2000/svg">
<path d="M103.43 0.189941H68.95L0 69.1399V97.0499H68.95V131.53H103.43V69.1399H34.48L103.43 0.189941Z" fill="white"/>
<path d="M118.2 34.6699L152.68 0.189941H118.2V34.6699Z" fill="white"/>
<path d="M187.15 34.6699V0.189941H152.68V34.6699L118.2 69.1399V103.62H152.68V69.1399L187.15 34.6699Z" fill="white"/>
<path d="M187.15 69.1401L152.68 103.62H187.15V69.1401Z" fill="white"/>
<path d="M120.92 131.53H118.2V165.81H120.92V131.53Z" fill="white"/>
<path d="M138.81 147.96L133.5 138.27H138.29L141.26 143.91L145.59 138.27H150.71L143.01 147.96L141.97 156.43H137.78L138.81 147.96Z" fill="white"/>
<path d="M162.27 141.81H156.34L155.9 145.32H161.62L161.18 148.86H155.46L154.97 152.89H161.01L160.57 156.43H150.44L152.67 138.27H162.69L162.27 141.81Z" fill="white"/>
<path d="M172.04 138.27C173.78 138.27 175.5 138.43 176.86 139.9C177.49 140.55 178.17 141.72 178.17 143.6C178.17 145.31 177.57 146.68 176.67 147.58C175.88 148.34 174.79 148.86 173.78 149.05L178.46 156.43H173.56L169.18 149.27L168.31 156.43H164.12L166.35 138.27H172.04ZM169.51 146.52H170.54C171.22 146.52 172.26 146.44 172.99 145.87C173.72 145.3 173.92 144.51 173.92 143.75C173.92 143.18 173.78 142.44 173.05 141.98C172.51 141.63 171.72 141.54 170.76 141.54H170.13L169.51 146.52Z" fill="white"/>
<path d="M192.46 141.81H186.53L186.09 145.32H191.81L191.37 148.86H185.65L185.16 152.89H191.2L190.76 156.43H180.63L182.86 138.27H192.88L192.46 141.81Z" fill="white"/>
<path d="M199.02 138.27L202.21 149.9L208.23 138.27H212.91L203 156.43H200.11L194.66 138.27H199.02Z" fill="white"/>
<path d="M222.89 153H216.03L214.32 156.43H209.8L219.38 138.27H223.24L228.11 156.43H223.81L222.89 153ZM222.13 149.78L220.66 143.38L217.61 149.78H222.13Z" fill="white"/>
<path d="M230.07 156.43L232.33 138.27H235.98L244.34 150.09L245.81 138.27H250L247.77 156.43H244.12L235.71 144.56L234.27 156.43H230.07Z" fill="white"/>
</svg>
